REM DIRINDEX 1\2,1\3
REM DIRNAME cjc132,folder01,folder02
TITLE ""
FILE "03.mp3" MP3
  TRACK 01 AUDIO
    TITLE "0:"
    INDEX 01 00:00:00
  TRACK 02 AUDIO
    TITLE "3:cjc132_0050"
    INDEX 01 00:00:11
  TRACK 03 AUDIO
    TITLE "0:"
    INDEX 01 00:01:09
  TRACK 04 AUDIO
    TITLE "2:cjc132_0051"
    INDEX 01 00:01:56
  TRACK 05 AUDIO
    TITLE "0:"
    INDEX 01 00:03:08
  TRACK 06 AUDIO
    TITLE "2:cjc132_0052"
    INDEX 01 00:03:57
  TRACK 07 AUDIO
    TITLE "0:"
    INDEX 01 00:04:72
  TRACK 08 AUDIO
    TITLE "2:cjc132_0053"
    INDEX 01 00:05:44
  TRACK 09 AUDIO
    TITLE "0:"
    INDEX 01 00:06:57
  TRACK 10 AUDIO
    TITLE "2:cjc132_0054"
    INDEX 01 00:07:27
  TRACK 11 AUDIO
    TITLE "0:"
    INDEX 01 00:09:00
  TRACK 12 AUDIO
    TITLE "2:cjc132_0055"
    INDEX 01 00:09:49
  TRACK 13 AUDIO
    TITLE "0:"
    INDEX 01 00:11:09
  TRACK 14 AUDIO
    TITLE "2:cjc132_0056"
    INDEX 01 00:11:62
  TRACK 15 AUDIO
    TITLE "0:"
    INDEX 01 00:13:12
  TRACK 16 AUDIO
    TITLE "2:cjc132_0057"
    INDEX 01 00:13:59
  TRACK 17 AUDIO
    TITLE "0:"
    INDEX 01 00:15:03
  TRACK 18 AUDIO
    TITLE "2:cjc132_0058"
    INDEX 01 00:16:14
  TRACK 19 AUDIO
    TITLE "0:"
    INDEX 01 00:17:33
  TRACK 20 AUDIO
    TITLE "2:cjc132_0059"
    INDEX 01 00:19:01
  TRACK 21 AUDIO
    TITLE "0:"
    INDEX 01 00:20:41
  TRACK 22 AUDIO
    TITLE "2:cjc132_0060"
    INDEX 01 00:22:30
  TRACK 23 AUDIO
    TITLE "0:"
    INDEX 01 00:24:12
  TRACK 24 AUDIO
    TITLE "2:cjc132_0061"
    INDEX 01 00:26:20
  TRACK 25 AUDIO
    TITLE "0:"
    INDEX 01 00:27:59
  TRACK 26 AUDIO
    TITLE "2:cjc132_0062"
    INDEX 01 00:29:56
  TRACK 27 AUDIO
    TITLE "0:"
    INDEX 01 00:31:45
  TRACK 28 AUDIO
    TITLE "2:cjc132_0063"
    INDEX 01 00:33:60
  TRACK 29 AUDIO
    TITLE "0:"
    INDEX 01 00:35:57
  TRACK 30 AUDIO
    TITLE "2:cjc132_0064"
    INDEX 01 00:38:00
  TRACK 31 AUDIO
    TITLE "0:"
    INDEX 01 00:40:54
  TRACK 32 AUDIO
    TITLE "2:cjc132_0065"
    INDEX 01 00:43:58
  TRACK 33 AUDIO
    TITLE "0:"
    INDEX 01 00:45:57
  TRACK 34 AUDIO
    TITLE "2:cjc132_0066"
    INDEX 01 00:48:02
  TRACK 35 AUDIO
    TITLE "0:"
    INDEX 01 00:50:03
  TRACK 36 AUDIO
    TITLE "2:cjc132_0067"
    INDEX 01 00:52:30
  TRACK 37 AUDIO
    TITLE "0:"
    INDEX 01 00:54:15
  TRACK 38 AUDIO
    TITLE "2:cjc132_0068"
    INDEX 01 00:56:24
  TRACK 39 AUDIO
    TITLE "0:"
    INDEX 01 00:57:60
  TRACK 40 AUDIO
    TITLE "2:cjc132_0069"
    INDEX 01 00:59:47
  TRACK 41 AUDIO
    TITLE "0:"
    INDEX 01 01:01:34
  TRACK 42 AUDIO
    TITLE "2:cjc132_0070"
    INDEX 01 01:03:43
  TRACK 43 AUDIO
    TITLE "0:"
    INDEX 01 01:05:36
  TRACK 44 AUDIO
    TITLE "2:cjc132_0071"
    INDEX 01 01:07:55
  TRACK 45 AUDIO
    TITLE "0:"
    INDEX 01 01:10:08
  TRACK 46 AUDIO
    TITLE "2:cjc132_0072"
    INDEX 01 01:12:62
  TRACK 47 AUDIO
    TITLE "0:"
    INDEX 01 01:14:17
  TRACK 48 AUDIO
    TITLE "2:cjc132_0073"
    INDEX 01 01:15:68
  TRACK 49 AUDIO
    TITLE "0:"
    INDEX 01 01:17:59
  TRACK 50 AUDIO
    TITLE "2:cjc132_0074"
    INDEX 01 01:20:02
  TRACK 51 AUDIO
    TITLE "0:"
    INDEX 01 01:21:51
  TRACK 52 AUDIO
    TITLE "2:cjc132_0075"
    INDEX 01 01:23:48
  TRACK 53 AUDIO
    TITLE "0:"
    INDEX 01 01:25:23
  TRACK 54 AUDIO
    TITLE "2:cjc132_0076"
    INDEX 01 01:27:22
  TRACK 55 AUDIO
    TITLE "0:"
    INDEX 01 01:28:39
  TRACK 56 AUDIO
    TITLE "2:cjc132_0077"
    INDEX 01 01:30:05
  TRACK 57 AUDIO
    TITLE "0:"
    INDEX 01 01:32:02
  TRACK 58 AUDIO
    TITLE "2:cjc132_0078"
    INDEX 01 01:34:26
  TRACK 59 AUDIO
    TITLE "0:"
    INDEX 01 01:36:21
  TRACK 60 AUDIO
    TITLE "2:cjc132_0079"
    INDEX 01 01:38:38
  TRACK 61 AUDIO
    TITLE "0:"
    INDEX 01 01:40:15
  TRACK 62 AUDIO
    TITLE "2:cjc132_0080"
    INDEX 01 01:42:16
  TRACK 63 AUDIO
    TITLE "0:"
    INDEX 01 01:43:72
  TRACK 64 AUDIO
    TITLE "2:cjc132_0081"
    INDEX 01 01:46:02
  TRACK 65 AUDIO
    TITLE "0:"
    INDEX 01 01:47:48
  TRACK 66 AUDIO
    TITLE "2:cjc132_0082"
    INDEX 01 01:49:43
  TRACK 67 AUDIO
    TITLE "0:"
    INDEX 01 01:51:15
  TRACK 68 AUDIO
    TITLE "2:cjc132_0083"
    INDEX 01 01:53:12
  TRACK 69 AUDIO
    TITLE "0:"
    INDEX 01 01:55:16
  TRACK 70 AUDIO
    TITLE "2:cjc132_0084"
    INDEX 01 01:57:41
  TRACK 71 AUDIO
    TITLE "0:"
    INDEX 01 01:59:48
  TRACK 72 AUDIO
    TITLE "2:cjc132_0085"
    INDEX 01 02:02:01
  TRACK 73 AUDIO
    TITLE "0:"
    INDEX 01 02:03:53
  TRACK 74 AUDIO
    TITLE "2:cjc132_0086"
    INDEX 01 02:05:50
  TRACK 75 AUDIO
    TITLE "0:"
    INDEX 01 02:07:35
  TRACK 76 AUDIO
    TITLE "2:cjc132_0087"
    INDEX 01 02:09:38
  TRACK 77 AUDIO
    TITLE "0:"
    INDEX 01 02:11:00
  TRACK 78 AUDIO
    TITLE "2:cjc132_0088"
    INDEX 01 02:12:48
  TRACK 79 AUDIO
    TITLE "0:"
    INDEX 01 02:14:12
  TRACK 80 AUDIO
    TITLE "2:cjc132_0089"
    INDEX 01 02:15:70
  TRACK 81 AUDIO
    TITLE "0:"
    INDEX 01 02:17:59
  TRACK 82 AUDIO
    TITLE "2:cjc132_0090"
    INDEX 01 02:20:01
  TRACK 83 AUDIO
    TITLE "0:"
    INDEX 01 02:22:17
  TRACK 84 AUDIO
    TITLE "2:cjc132_0091"
    INDEX 01 02:24:57
  TRACK 85 AUDIO
    TITLE "0:"
    INDEX 01 02:26:62
  TRACK 86 AUDIO
    TITLE "2:cjc132_0092"
    INDEX 01 02:29:13
  TRACK 87 AUDIO
    TITLE "0:"
    INDEX 01 02:30:60
  TRACK 88 AUDIO
    TITLE "2:cjc132_0093"
    INDEX 01 02:32:57
  TRACK 89 AUDIO
    TITLE "0:"
    INDEX 01 02:34:66
  TRACK 90 AUDIO
    TITLE "2:cjc132_0094"
    INDEX 01 02:37:17
  TRACK 91 AUDIO
    TITLE "0:"
    INDEX 01 02:38:44
  TRACK 92 AUDIO
    TITLE "2:cjc132_0095"
    INDEX 01 02:40:17
  TRACK 93 AUDIO
    TITLE "0:"
    INDEX 01 02:42:36
  TRACK 94 AUDIO
    TITLE "2:cjc132_0096"
    INDEX 01 02:44:72
  TRACK 95 AUDIO
    TITLE "0:"
    INDEX 01 02:46:37
  TRACK 96 AUDIO
    TITLE "2:cjc132_0097"
    INDEX 01 02:48:23
  TRACK 97 AUDIO
    TITLE "0:"
    INDEX 01 02:50:12
  TRACK 98 AUDIO
    TITLE "2:cjc132_0098"
    INDEX 01 02:52:22
  TRACK 99 AUDIO
    TITLE "0:"
    INDEX 01 02:54:21
  TRACK 100 AUDIO
    TITLE "2:cjc132_0099"
    INDEX 01 02:56:46
  TRACK 101 AUDIO
    TITLE "0:"
    INDEX 01 02:58:11
  TRACK 102 AUDIO
    TITLE "2:cjc132_0100"
    INDEX 01 03:00:02
  TRACK 103 AUDIO
    TITLE "0:"
    INDEX 01 03:01:64
  TRACK 104 AUDIO
    TITLE "2:cjc132_0101"
    INDEX 01 03:03:71
  TRACK 105 AUDIO
    TITLE "0:"
    INDEX 01 03:05:66
  TRACK 106 AUDIO
    TITLE "2:cjc132_0102"
    INDEX 01 03:08:08
  TRACK 107 AUDIO
    TITLE "0:"
    INDEX 01 03:10:10
  TRACK 108 AUDIO
    TITLE "2:cjc132_0103"
    INDEX 01 03:12:35
  TRACK 109 AUDIO
    TITLE "0:"
    INDEX 01 03:14:65
